HIERARCHY
ROOT hip
{
  OFFSET 0 0 0
  CHANNELS 6 Xposition Yposition Zposition Zrotation Yrotation Xrotation
  JOINT abdomen
  {
    OFFSET 0 20.6881 -0.73152
    CHANNELS 3 Zrotation Xrotation Yrotation
    JOINT chest
    {
      OFFSET 0 11.7043 -0.48768
      CHANNELS 3 Zrotation Xrotation Yrotation
      JOINT neck
      {
        OFFSET 0 22.1894 -2.19456
        CHANNELS 3 Zrotation Xrotation Yrotation
        JOINT head
        {
          OFFSET -0.24384 7.07133 1.2192
          CHANNELS 3 Zrotation Xrotation Yrotation
          JOINT leftEye
          {
            OFFSET 4.14528 8.04674 8.04672
            CHANNELS 3 Zrotation Xrotation Yrotation
            End Site
            {
              OFFSET 1 0 0
            }
          }
          JOINT rightEye
          {
            OFFSET -3.6576 8.04674 8.04672
            CHANNELS 3 Zrotation Xrotation Yrotation
            End Site
            {
              OFFSET 1 0 0
            }
          }
        }
      }
      JOINT rCollar
      {
        OFFSET -2.68224 19.2634 -4.8768
        CHANNELS 3 Zrotation Xrotation Yrotation
        JOINT rShldr
        {
          OFFSET -8.77824 -1.95073 1.46304
          CHANNELS 3 Zrotation Xrotation Yrotation
          JOINT rForeArm
          {
            OFFSET -28.1742 -1.7115 0.48768
            CHANNELS 3 Zrotation Xrotation Yrotation
            JOINT rHand
            {
              OFFSET -22.5879 0.773209 7.07136
              CHANNELS 3 Zrotation Xrotation Yrotation
              JOINT rThumb1
              {
                OFFSET -1.2192 -0.487915 3.41376
                CHANNELS 3 Zrotation Xrotation Yrotation
                JOINT rThumb2
                {
                  OFFSET -3.37035 -0.52449 3.41376
                  CHANNELS 3 Zrotation Xrotation Yrotation
                  End Site
                  {
                    OFFSET -1.78271 -1.18214 1.43049
                  }
                }
              }
              JOINT rIndex1
              {
                OFFSET -7.75947 0.938293 5.60832
                CHANNELS 3 Zrotation Xrotation Yrotation
                JOINT rIndex2
                {
                  OFFSET -2.54057 -0.884171 1.56538
                  CHANNELS 3 Zrotation Xrotation Yrotation
                  End Site
                  {
                    OFFSET -1.62519 -0.234802 1.16502
                  }
                }
              }
              JOINT rMid1
              {
                OFFSET -8.24714 1.18213 3.41376
                CHANNELS 3 Zrotation Xrotation Yrotation
                JOINT rMid2
                {
                  OFFSET -3.10165 -0.590103 1.0647
                  CHANNELS 3 Zrotation Xrotation Yrotation
                  End Site
                  {
                    OFFSET -2.48547 -0.328903 0.83742
                  }
                }
              }
              JOINT rRing1
              {
                OFFSET -8.82822 0.546677 1.51678
                CHANNELS 3 Zrotation Xrotation Yrotation
                JOINT rRing2
                {
                  OFFSET -2.60934 -0.819778 -0.0198488
                  CHANNELS 3 Zrotation Xrotation Yrotation
                  End Site
                  {
                    OFFSET -2.33842 -0.294052 0.168128
                  }
                }
              }
              JOINT rPinky1
              {
                OFFSET -8.27202 -0.0477905 -0.4584
                CHANNELS 3 Zrotation Xrotation Yrotation
                JOINT rPinky2
                {
                  OFFSET -1.82734 -0.647385 -0.700984
                  CHANNELS 3 Zrotation Xrotation Yrotation
                  End Site
                  {
                    OFFSET -1.69225 -0.51767 -0.607171
                  }
                }
              }
            }
          }
        }
      }
      JOINT lCollar
      {
        OFFSET 2.68224 19.2634 -4.8768
        CHANNELS 3 Zrotation Xrotation Yrotation
        JOINT lShldr
        {
          OFFSET 8.77824 -1.95073 1.46304
          CHANNELS 3 Zrotation Xrotation Yrotation
          JOINT lForeArm
          {
            OFFSET 28.1742 -1.7115 0.48768
            CHANNELS 3 Zrotation Xrotation Yrotation
            JOINT lHand
            {
              OFFSET 22.5879 0.773209 7.07136
              CHANNELS 3 Zrotation Xrotation Yrotation
              JOINT lThumb1
              {
                OFFSET 1.2192 -0.487915 3.41376
                CHANNELS 3 Zrotation Xrotation Yrotation
                JOINT lThumb2
                {
                  OFFSET 3.37035 -0.52449 3.41376
                  CHANNELS 3 Zrotation Xrotation Yrotation
                  End Site
                  {
                    OFFSET 1.78271 -1.18214 1.43049
                  }
                }
              }
              JOINT lIndex1
              {
                OFFSET 7.75947 0.938293 5.60832
                CHANNELS 3 Zrotation Xrotation Yrotation
                JOINT lIndex2
                {
                  OFFSET 2.54057 -0.884171 1.56538
                  CHANNELS 3 Zrotation Xrotation Yrotation
                  End Site
                  {
                    OFFSET 1.62519 -0.234802 1.16502
                  }
                }
              }
              JOINT lMid1
              {
                OFFSET 8.24714 1.18213 3.41376
                CHANNELS 3 Zrotation Xrotation Yrotation
                JOINT lMid2
                {
                  OFFSET 3.10165 -0.590103 1.0647
                  CHANNELS 3 Zrotation Xrotation Yrotation
                  End Site
                  {
                    OFFSET 2.48547 -0.328903 0.83742
                  }
                }
              }
              JOINT lRing1
              {
                OFFSET 8.82822 0.546677 1.51678
                CHANNELS 3 Zrotation Xrotation Yrotation
                JOINT lRing2
                {
                  OFFSET 2.60934 -0.819778 -0.0198488
                  CHANNELS 3 Zrotation Xrotation Yrotation
                  End Site
                  {
                    OFFSET 2.33842 -0.294052 0.168128
                  }
                }
              }
              JOINT lPinky1
              {
                OFFSET 8.27202 -0.0477905 -0.4584
                CHANNELS 3 Zrotation Xrotation Yrotation
                JOINT lPinky2
                {
                  OFFSET 1.82734 -0.647385 -0.700984
                  CHANNELS 3 Zrotation Xrotation Yrotation
                  End Site
                  {
                    OFFSET 1.69225 -0.51767 -0.607171
                  }
                }
              }
            }
          }
        }
      }
    }
  }
  JOINT rButtock
  {
    OFFSET -8.77824 4.35084 1.2192
    CHANNELS 3 Zrotation Xrotation Yrotation
    JOINT rThigh
    {
      OFFSET 0 -1.70687 -2.19456
      CHANNELS 3 Zrotation Xrotation Yrotation
      JOINT rShin
      {
        OFFSET 0 -36.8199 0.73152
        CHANNELS 3 Zrotation Xrotation Yrotation
        JOINT rFoot
        {
          OFFSET 0.73152 -45.1104 -5.12064
          CHANNELS 3 Zrotation Xrotation Yrotation
          End Site
          {
            OFFSET -1.1221 -3.69964 12.103
          }
        }
      }
    }
  }
  JOINT lButtock
  {
    OFFSET 8.77824 4.35084 1.2192
    CHANNELS 3 Zrotation Xrotation Yrotation
    JOINT lThigh
    {
      OFFSET 0 -1.70687 -2.19456
      CHANNELS 3 Zrotation Xrotation Yrotation
      JOINT lShin
      {
        OFFSET 0 -36.8199 0.73152
        CHANNELS 3 Zrotation Xrotation Yrotation
        JOINT lFoot
        {
          OFFSET -0.73152 -45.1104 -5.12064
          CHANNELS 3 Zrotation Xrotation Yrotation
          End Site
          {
            OFFSET 1.1221 -3.69964 12.103
          }
        }
      }
    }
  }
}
MOTION
Frames:	4
Frame Time:	0.00833333
54.1698 56.3428 -33.2226 9.1109 -10.9207 22.6334 17.9166 65.1876 -7.58586 -2.77131 -7.83812 0.968217 3.73399 21.9768 -11.7167 -26.7242 -57.0378 -41.2667 -0.0 0.0 0.0 -0.0 0.0 0.0 6.99418e-14 4.87777e-13 -6.58257e-14 35.1175 -19.1746 52.3041 -18.0079 -10.6955 34.0367 -1.01132 27.3085 4.16132 1.12838e-09 -2.35813e-09 7.95691e-10 1.96974e-09 -4.04938e-09 1.34182e-09 1.12839e-09 -2.35813e-09 7.95682e-10 7.73091 5.47488 0.417314 1.12838e-09 -2.35814e-09 7.95689e-10 2.90554 0.965183 0.102902 1.12839e-09 -2.35814e-09 7.95694e-10 10.2786 0.731801 0.0259123 1.12838e-09 -2.35814e-09 7.95703e-10 2.22167 -0.733487 -0.20892 6.97903e-14 4.87758e-13 -6.60287e-14 -36.5079 -0.435879 -49.3113 22.904 -50.6938 -106.586 0.0189307 -3.92629 0.552677 2.8193e-09 -1.11808e-08 -3.44064e-09 4.89204e-09 -1.93972e-08 -5.95544e-09 2.8193e-09 -1.11808e-08 -3.44063e-09 -7.73091 5.47488 -0.417314 2.8193e-09 -1.11808e-08 -3.44063e-09 -2.90554 0.965183 -0.102902 2.81929e-09 -1.11808e-08 -3.44063e-09 -10.2786 0.731801 -0.0259123 2.8193e-09 -1.11808e-08 -3.44064e-09 -2.22167 -0.733487 0.20892 -2.03217e-16 0.0 -3.88251e-19 -128.714 -68.1077 -131.57 -174.535 76.148 175.101 -9.31673 -23.6609 -16.2208 2.03217e-16 0.0 3.88251e-19 -140.9 -83.4196 -123.189 169.038 83.9897 -169.737 6.27704 -21.5568 11.3329
54.1503 56.4143 -33.1382 9.0095 -10.89 22.4619 17.6879 64.8551 -7.44634 -2.763 -7.77205 0.952623 3.6681 22.0256 -11.6971 -26.6632 -57.0196 -41.1683 -0.0 0.0 0.0 -0.0 0.0 0.0 -4.21482e-14 2.69163e-13 -5.47776e-14 34.8208 -18.9275 52.0379 -18.1417 -10.8404 34.3374 -1.00179 27.1919 4.14054 1.12056e-09 -2.38782e-09 9.1782e-10 1.95952e-09 -4.10714e-09 1.55577e-09 1.12056e-09 -2.38782e-09 9.1781e-10 7.73091 5.47488 0.417314 1.12056e-09 -2.38783e-09 9.17814e-10 2.90554 0.965183 0.102902 1.12057e-09 -2.38783e-09 9.1782e-10 10.2786 0.731801 0.0259123 1.12056e-09 -2.38783e-09 9.1783e-10 2.22167 -0.733487 -0.20892 -4.23659e-14 2.69145e-13 -5.50665e-14 -36.3767 -0.496927 -49.2811 22.9958 -50.5931 -106.321 0.0198918 -4.02458 0.566558 2.13853e-09 -8.63356e-09 -2.8048e-09 3.7127e-09 -1.49838e-08 -4.85596e-09 2.13852e-09 -8.63356e-09 -2.80479e-09 -7.73091 5.47488 -0.417314 2.13853e-09 -8.63356e-09 -2.8048e-09 -2.90554 0.965183 -0.102902 2.13851e-09 -8.63355e-09 -2.8048e-09 -10.2786 0.731801 -0.0259123 2.13853e-09 -8.63356e-09 -2.80481e-09 -2.22167 -0.733487 0.20892 -2.03217e-16 0.0 -3.88251e-19 -127.796 -68.5466 -130.65 -174.436 76.4573 175.002 -9.37744 -23.6593 -16.34 2.03217e-16 0.0 3.88251e-19 -137.778 -83.7206 -120.203 168.566 84.262 -169.267 6.26081 -21.5626 11.3089
54.1374 56.6499 -33.0882 8.9104 -10.8428 22.3033 17.4819 64.4842 -7.32958 -2.75418 -7.69638 0.934094 3.60371 22.0762 -11.6774 -26.6049 -56.9999 -41.0703 -0.0 0.0 0.0 -0.0 0.0 0.0 -1.51409e-13 2.76886e-14 -3.88282e-14 34.5445 -18.7008 51.7874 -18.2773 -10.9882 34.6443 -0.993505 27.0899 4.12238 1.02196e-09 -2.227e-09 9.70758e-10 1.79081e-09 -3.83763e-09 1.65264e-09 1.02196e-09 -2.227e-09 9.70749e-10 7.73091 5.47488 0.417314 1.02196e-09 -2.227e-09 9.7075e-10 2.90554 0.965183 0.102902 1.02197e-09 -2.227e-09 9.70757e-10 10.2786 0.731801 0.0259123 1.02196e-09 -2.227e-09 9.70767e-10 2.22167 -0.733487 -0.20892 -1.51684e-13 2.76712e-14 -3.91951e-14 -36.255 -0.552987 -49.2488 23.084 -50.495 -106.064 0.0209585 -4.12995 0.581443 1.344e-09 -5.57666e-09 -1.98628e-09 2.3358e-09 -9.6857e-09 -3.44022e-09 1.34399e-09 -5.57667e-09 -1.98627e-09 -7.73091 5.47488 -0.417314 1.344e-09 -5.57667e-09 -1.98628e-09 -2.90554 0.965183 -0.102902 1.34397e-09 -5.57665e-09 -1.98628e-09 -10.2786 0.731801 -0.0259123 1.344e-09 -5.57666e-09 -1.98629e-09 -2.22167 -0.733487 0.20892 -2.03217e-16 0.0 -3.88251e-19 -126.793 -68.9731 -129.649 -174.326 76.7876 174.892 -9.43477 -23.6516 -16.4568 2.03217e-16 0.0 3.88251e-19 -134.24 -83.9976 -116.804 168.002 84.5566 -168.703 6.23933 -21.561 11.2779
54.1389 56.8921 -33.0401 8.8156 -10.7729 22.163 17.3105 64.0596 -7.24285 -2.7382 -7.60933 0.912619 3.54418 22.1273 -11.6606 -26.5638 -56.977 -40.9876 -0.0 0.0 0.0 -0.0 0.0 0.0 -2.24088e-13 -1.55839e-13 -2.04748e-14 34.2631 -18.4926 51.5488 -18.4055 -11.1294 34.9363 -0.987322 27.0132 4.10875 8.0199e-10 -1.75652e-09 8.48893e-10 1.40828e-09 -3.03264e-09 1.44959e-09 8.0199e-10 -1.75652e-09 8.48884e-10 7.73091 5.47488 0.417314 8.01986e-10 -1.75652e-09 8.48884e-10 2.90554 0.965183 0.102902 8.01997e-10 -1.75652e-09 8.4889e-10 10.2786 0.731801 0.0259123 8.01988e-10 -1.75652e-09 8.489e-10 2.22167 -0.733487 -0.20892 -2.24385e-13 -1.55857e-13 -2.08724e-14 -36.1521 -0.590864 -49.2196 23.1683 -50.4001 -105.818 0.0220228 -4.23263 0.595952 7.09889e-10 -3.06336e-09 -1.26089e-09 1.2364e-09 -5.3284e-09 -2.18528e-09 7.09878e-10 -3.06336e-09 -1.26087e-09 -7.73091 5.47488 -0.417314 7.09888e-10 -3.06336e-09 -1.26088e-09 -2.90554 0.965183 -0.102902 7.09861e-10 -3.06334e-09 -1.26089e-09 -10.2786 0.731801 -0.0259123 7.0989e-10 -3.06336e-09 -1.2609e-09 -2.22167 -0.733487 0.20892 -2.03217e-16 0.0 -3.88251e-19 -125.684 -69.3673 -128.547 -174.198 77.1512 174.764 -9.48165 -23.6334 -16.5616 2.03217e-16 0.0 3.88251e-19 -130.211 -84.2336 -112.913 167.28 84.8911 -167.983 6.20767 -21.541 11.2345
